<svg width="42" height="42" viewBox="0 0 42 42" fill="none" xmlns="http://www.w3.org/2000/svg">
<path d="M18.8742 0.216026C12.3941 0.8881 6.71599 4.41042 3.26535 9.90038C-1.62709 17.6819 -0.703684 28.014 5.48477 34.7428C8.92731 38.4838 13.1879 40.7105 18.3072 41.4393C19.2711 41.5769 22.4544 41.5688 23.4507 41.4312C28.489 40.7348 32.7496 38.5162 36.1841 34.7914C39.011 31.7307 40.8173 27.8197 41.4491 23.4066C41.5868 22.4512 41.5868 19.2608 41.4491 18.3054C40.9712 14.9369 39.902 12.0785 38.1281 9.40644C37.3829 8.27282 36.6296 7.34973 35.5766 6.28899C32.3446 3.01768 28.3432 1.00146 23.7342 0.321289C22.7379 0.175541 19.8624 0.11076 18.8742 0.216026ZM17.0517 10.2486C17.4081 10.9692 17.481 11.0583 17.643 11.0178C18.8337 10.7587 22.908 10.7587 24.0744 11.0178C24.2365 11.0583 24.3013 10.9692 24.6658 10.2486L25.0789 9.43074L25.3786 9.47932C26.6746 9.68985 29.0479 10.4024 30.5221 11.0178C31.2187 11.3093 31.243 11.3336 31.6237 11.9004C32.9116 13.8033 34.1752 16.5078 34.8395 18.7912C35.1716 19.9329 35.5523 21.7629 35.6981 22.9613C35.8115 23.8763 35.8439 27.7468 35.7386 28.2245C35.69 28.4836 35.5766 28.5808 34.6856 29.1638C32.8792 30.3622 31.243 31.18 29.2666 31.9007C28.6996 32.1031 28.1974 32.2732 28.165 32.2732C28.0354 32.2732 26.5288 29.8683 26.5288 29.6658C26.5288 29.6416 26.6989 29.5606 26.9176 29.4796C27.4765 29.2691 28.8535 28.5646 28.9264 28.4593C28.9831 28.3703 28.5862 27.9897 28.4323 27.9816C28.3837 27.9816 28.0516 28.1031 27.6952 28.2569C25.5325 29.1638 23.3292 29.6092 20.9073 29.6092C18.2748 29.6092 16.3875 29.2124 13.5201 28.0545C13.2932 27.9654 13.2365 27.9735 13.0097 28.1355C12.872 28.2326 12.7586 28.3622 12.7586 28.4189C12.7586 28.4755 13.3094 28.7832 13.9737 29.1071L15.1968 29.6982L14.8971 30.2327C14.484 30.9776 13.6335 32.2732 13.5525 32.2732C13.3985 32.2732 11.4221 31.5201 10.5878 31.1396C8.6762 30.2812 6.07608 28.678 5.97078 28.3055C5.84928 27.8682 5.91408 23.7629 6.05988 22.6941C6.31908 20.7588 6.77269 18.9288 7.46119 17.0503C7.8338 16.03 9.21891 13.2446 9.85882 12.2324C10.361 11.4389 10.3853 11.4146 10.9766 11.1231C11.7947 10.7182 13.8117 10.0542 15.213 9.72224C15.8448 9.56839 16.428 9.44693 16.5009 9.44693C16.6062 9.43883 16.7682 9.67365 17.0517 10.2486Z" fill="white"/>
</svg>
