<svg width="43" height="40" viewBox="0 0 43 40" fill="none" xmlns="http://www.w3.org/2000/svg">
<path d="M19.1272 0.139111C10.6788 1.15937 3.63171 7.27282 1.57429 15.362C1.09638 17.2568 0.974882 18.2446 0.974882 20.3013C0.966782 21.3459 1.01538 22.3985 1.08018 22.852C1.95499 29.1922 5.42182 34.4392 10.8975 37.7591C12.5661 38.7631 14.7774 39.6943 15.5145 39.6943C15.879 39.6943 15.96 39.6619 16.203 39.419C16.3812 39.2409 16.4784 39.0627 16.4865 38.9089C16.5027 38.585 16.4622 35.2813 16.4541 35.2732C16.446 35.2651 16.1139 35.3137 15.7089 35.3785C14.8341 35.5161 13.4976 35.4757 12.7929 35.2813C11.8614 35.0384 11.1567 34.6416 10.533 34.0019C10.0146 33.4918 9.87687 33.2732 9.36656 32.2448C8.69425 30.8764 8.24875 30.2691 7.50354 29.7509C6.35333 28.9411 6.16703 28.5849 6.79884 28.3662C7.04994 28.2853 7.23624 28.2772 7.63314 28.3419C8.73475 28.5201 9.73106 29.2245 10.5087 30.3744C11.4807 31.8157 12.2826 32.3744 13.6596 32.5687C14.2914 32.6578 15.1581 32.5606 15.9681 32.3177C16.5432 32.1396 16.5432 32.1396 16.7619 31.257C16.9077 30.6902 17.3046 29.9371 17.661 29.5646L17.8635 29.3541L17.3532 29.2974C16.5189 29.2003 14.9799 28.8521 14.2266 28.5849C12.8658 28.1071 11.991 27.5889 11.0271 26.6658C9.22886 24.9492 8.38645 22.4552 8.48365 19.1272C8.51605 17.9855 8.55655 17.6859 8.73475 17.0624C9.02636 16.0827 9.44756 15.2567 10.0632 14.447C10.452 13.9288 10.5492 13.7506 10.4925 13.6373C10.3224 13.3134 10.1604 12.2769 10.1604 11.5239C10.1604 10.6575 10.3062 9.75059 10.5654 8.95705C10.7679 8.36595 10.8732 8.32546 11.7399 8.44692C12.8415 8.60077 14.4129 9.24855 15.8385 10.1393C16.4136 10.5036 16.4865 10.5279 16.7376 10.455C17.418 10.2607 19.2406 9.97731 20.3827 9.89634C22.2295 9.75868 24.7405 9.97731 26.3524 10.4146L26.7898 10.536L27.5269 10.0826C28.9444 9.20807 30.4268 8.60077 31.5365 8.43883C32.4113 8.31737 32.4842 8.35785 32.711 9.07851C32.8163 9.4186 32.9459 9.97731 33.0026 10.3255C33.1403 11.1595 33.0674 12.698 32.8649 13.3377L32.711 13.8235L33.0836 14.277C34.2986 15.7912 34.8008 17.3215 34.7927 19.4997C34.7846 24.933 32.3303 28.0342 27.2596 29.0464C26.7412 29.1436 26.1094 29.2569 25.8502 29.2893L25.3804 29.346L25.6639 29.6537C26.0122 30.0424 26.3767 30.7468 26.5711 31.4027C26.6926 31.8157 26.7169 32.3906 26.7574 35.4837C26.7979 38.1882 26.8303 39.1356 26.9113 39.2652C27.049 39.5162 27.4216 39.6943 27.7861 39.6943C28.5394 39.6943 31.4555 38.3745 33.1241 37.2894C34.4606 36.4068 35.546 35.5161 36.6476 34.3825C39.7661 31.1841 41.6292 27.346 42.2448 22.852C42.4068 21.686 42.3825 18.7467 42.2043 17.5483C40.8111 8.31737 33.4481 1.23224 24.1087 0.139111C22.8613 -0.00664139 20.3503 -0.00664139 19.1272 0.139111Z" fill="white"/>
</svg>
