<svg width="205" height="23" viewBox="0 0 205 23" fill="none" xmlns="http://www.w3.org/2000/svg">
<path d="M0.408 23V0.599998H7.32V8.984H14.008V0.599998H20.92V23H14.008V14.392H7.32V23H0.408ZM22.2812 23L29.4493 3.416C29.8546 2.34933 30.5159 1.54933 31.4333 1.016C32.3719 0.461332 33.4279 0.183998 34.6013 0.183998C35.7746 0.183998 36.8199 0.450665 37.7373 0.983999C38.6759 1.51733 39.3479 2.31733 39.7533 3.384L46.9213 23H39.5933L38.3773 19.096H30.7292L29.4493 23H22.2812ZM32.1693 13.816H36.9373L34.8573 6.616C34.8359 6.552 34.8039 6.50933 34.7613 6.488C34.7186 6.44533 34.6653 6.424 34.6013 6.424C34.5586 6.424 34.5159 6.44533 34.4733 6.488C34.4306 6.50933 34.3986 6.552 34.3773 6.616L32.1693 13.816ZM59.5055 23C57.5002 23 55.7082 22.7333 54.1295 22.2C52.5508 21.6667 51.2175 20.8987 50.1295 19.896C49.0415 18.8933 48.2095 17.7093 47.6335 16.344C47.0575 14.9787 46.7695 13.464 46.7695 11.8C46.7695 10.136 47.0575 8.62133 47.6335 7.256C48.2095 5.89067 49.0415 4.70667 50.1295 3.704C51.2388 2.70133 52.5722 1.93333 54.1295 1.4C55.7082 0.866666 57.5002 0.599998 59.5055 0.599998H62.8975V6.008H59.7295C58.7482 6.008 57.8842 6.15733 57.1375 6.456C56.3908 6.75467 55.7722 7.17067 55.2815 7.704C54.7908 8.216 54.4175 8.824 54.1615 9.528C53.9268 10.232 53.8095 10.9893 53.8095 11.8C53.8095 12.6107 53.9268 13.368 54.1615 14.072C54.4175 14.776 54.7908 15.3947 55.2815 15.928C55.7722 16.44 56.3908 16.8453 57.1375 17.144C57.8842 17.4427 58.7482 17.592 59.7295 17.592H62.8975V23H59.5055ZM65.0018 23V0.599998H71.9138V9.176H74.5378C74.9858 9.176 75.3804 9.06933 75.7218 8.856C76.0844 8.64267 76.3724 8.33333 76.5858 7.928C76.7991 7.52267 76.9058 7.04267 76.9058 6.488V0.599998H83.8178V6.616C83.8178 7.91733 83.4978 9.12267 82.8578 10.232C82.2391 11.32 81.4071 12.2267 80.3618 12.952L82.2818 17.016C82.3884 17.2293 82.5378 17.4 82.7298 17.528C82.9218 17.656 83.1458 17.72 83.4018 17.72H85.0978V23H81.4818C80.1164 23 79.0284 22.7653 78.2178 22.296C77.4071 21.8053 76.7884 21.144 76.3618 20.312L73.6098 14.552C73.5244 14.552 73.4391 14.552 73.3538 14.552C73.2684 14.552 73.1831 14.552 73.0978 14.552H71.9138V23H65.0018Z" fill="#5200FF"/>
<path d="M86.9483 23V17.592H96.4523C96.8149 17.592 97.1136 17.5173 97.3483 17.368C97.6043 17.2187 97.7963 17.0267 97.9243 16.792C98.0736 16.536 98.1483 16.2693 98.1483 15.992C98.1483 15.6933 98.0736 15.4267 97.9243 15.192C97.7963 14.936 97.6043 14.7333 97.3483 14.584C97.1136 14.4347 96.8149 14.36 96.4523 14.36H93.5723C92.1856 14.36 90.9269 14.0933 89.7963 13.56C88.6656 13.0267 87.7589 12.2587 87.0763 11.256C86.4149 10.232 86.0843 9.00533 86.0843 7.576C86.0843 6.168 86.4043 4.94133 87.0443 3.896C87.6843 2.85067 88.5483 2.04 89.6363 1.464C90.7243 0.887999 91.9296 0.599998 93.2523 0.599998H103.46V6.008H94.1803C93.8816 6.008 93.6149 6.072 93.3802 6.2C93.1669 6.328 92.9963 6.49867 92.8683 6.712C92.7616 6.92533 92.7083 7.16 92.7083 7.416C92.7083 7.672 92.7616 7.90667 92.8683 8.12C92.9963 8.33333 93.1669 8.51467 93.3802 8.664C93.6149 8.792 93.8816 8.856 94.1803 8.856H97.2843C98.7989 8.856 100.122 9.144 101.252 9.72C102.383 10.2747 103.258 11.0533 103.876 12.056C104.495 13.0587 104.804 14.2427 104.804 15.608C104.804 17.1653 104.474 18.4987 103.812 19.608C103.172 20.7173 102.308 21.56 101.22 22.136C100.132 22.712 98.9269 23 97.6043 23H86.9483ZM119.352 23C117.922 23 116.653 22.7013 115.544 22.104C114.434 21.4853 113.56 20.6533 112.92 19.608C112.28 18.5413 111.96 17.336 111.96 15.992V6.008H106.168V0.599998H124.536V6.008H118.872V16.344C118.872 16.6853 118.989 16.984 119.224 17.24C119.458 17.4747 119.746 17.592 120.088 17.592H122.232V23H119.352ZM132.872 23C131.592 23 130.419 22.7227 129.352 22.168C128.307 21.6133 127.475 20.856 126.856 19.896C126.237 18.9147 125.928 17.784 125.928 16.504C125.928 15.5013 126.152 14.5627 126.6 13.688C127.069 12.792 127.709 12.0453 128.52 11.448C127.816 10.8933 127.251 10.2213 126.824 9.432C126.397 8.62133 126.184 7.78933 126.184 6.936C126.184 5.67733 126.483 4.57867 127.08 3.64C127.699 2.68 128.52 1.93333 129.544 1.4C130.589 0.866666 131.731 0.599998 132.968 0.599998H142.92V6.008H134.504C134.163 6.008 133.853 6.072 133.576 6.2C133.299 6.30667 133.075 6.47733 132.904 6.712C132.755 6.92533 132.68 7.20267 132.68 7.544C132.68 7.864 132.755 8.14133 132.904 8.376C133.075 8.58933 133.299 8.76 133.576 8.888C133.853 8.99467 134.163 9.048 134.504 9.048H141.8V14.424H134.536C134.173 14.424 133.853 14.488 133.576 14.616C133.299 14.744 133.075 14.9253 132.904 15.16C132.755 15.3947 132.68 15.6827 132.68 16.024C132.68 16.344 132.755 16.6213 132.904 16.856C133.075 17.0907 133.299 17.272 133.576 17.4C133.853 17.5067 134.173 17.56 134.536 17.56H142.92V23H132.872ZM145.471 23V0.599998H156.095C157.716 0.599998 159.188 0.941332 160.51 1.624C161.833 2.30667 162.889 3.256 163.679 4.472C164.468 5.66667 164.863 7.05333 164.863 8.632C164.863 9.93333 164.543 11.16 163.903 12.312C163.284 13.4427 162.452 14.3813 161.407 15.128L162.655 17.08C162.804 17.2933 162.964 17.4533 163.135 17.56C163.305 17.6667 163.561 17.72 163.903 17.72H165.503V23H161.919C160.788 23 159.775 22.7547 158.879 22.264C158.004 21.7733 157.332 21.1333 156.863 20.344L154.719 16.728C154.633 16.728 154.548 16.728 154.463 16.728C154.377 16.728 154.292 16.728 154.207 16.728H152.383V23H145.471ZM152.383 11.448H155.391C155.817 11.448 156.223 11.3413 156.607 11.128C156.991 10.8933 157.3 10.5733 157.535 10.168C157.769 9.74133 157.887 9.25067 157.887 8.696C157.887 8.14133 157.769 7.672 157.535 7.288C157.3 6.88267 156.991 6.57333 156.607 6.36C156.223 6.12533 155.817 6.008 155.391 6.008H152.383V11.448ZM166.993 23V17.592H170.481V6.008H166.993V0.599998H180.913V6.008H177.393V17.592H180.913V23H166.993ZM182.29 23L188.146 13.464C187.144 12.9733 186.29 12.3653 185.586 11.64C184.882 10.9147 184.338 10.0827 183.954 9.144C183.592 8.184 183.41 7.128 183.41 5.976V0.599998H190.322V6.328C190.322 6.69067 190.386 7.02133 190.514 7.32C190.642 7.61867 190.813 7.87467 191.026 8.088C191.261 8.28 191.517 8.41867 191.794 8.504L196.53 0.599998H204.178L198.386 9.912C199.517 10.3173 200.488 10.8933 201.298 11.64C202.109 12.3653 202.728 13.2293 203.154 14.232C203.581 15.2347 203.794 16.3547 203.794 17.592V23H196.882V17.336C196.882 16.696 196.69 16.1307 196.306 15.64C195.922 15.1493 195.453 14.8507 194.898 14.744L189.938 23H182.29Z" fill="white"/>
</svg>
