<svg width="40" height="32" viewBox="0 0 40 32" fill="none" xmlns="http://www.w3.org/2000/svg">
<path d="M35.8884 8.01227C35.9138 8.36063 35.9138 8.70907 35.9138 9.05743C35.9138 19.683 27.6651 31.9261 12.5889 31.9261C7.94417 31.9261 3.62947 30.6071 0 28.3179C0.659924 28.3925 1.29438 28.4174 1.9797 28.4174C5.81213 28.4174 9.34011 27.1483 12.1574 24.9834C8.55331 24.9087 5.53299 22.5945 4.49236 19.4093C5.00002 19.4839 5.5076 19.5337 6.04065 19.5337C6.77667 19.5337 7.51276 19.4341 8.198 19.26C4.44166 18.5134 1.6243 15.2785 1.6243 11.3717V11.2722C2.71564 11.8694 3.98478 12.2426 5.32986 12.2924C3.12173 10.849 1.67508 8.38553 1.67508 5.59847C1.67508 4.10544 2.0811 2.73681 2.79181 1.54235C6.82737 6.41966 12.8934 9.6048 19.6954 9.95324C19.5685 9.35601 19.4923 8.73397 19.4923 8.11185C19.4923 3.6824 23.1472 0.0742188 27.6903 0.0742188C30.0507 0.0742188 32.1827 1.0447 33.6802 2.61241C35.533 2.26405 37.3096 1.59214 38.8833 0.671445C38.2741 2.53781 36.9797 4.10552 35.2792 5.10082C36.929 4.92671 38.528 4.4787 40 3.85665C38.8834 5.44918 37.4874 6.86753 35.8884 8.01227Z" fill="white"/>
</svg>
