<svg width="61" height="80" viewBox="0 0 61 80" fill="none" xmlns="http://www.w3.org/2000/svg">
<g clip-path="url(#clip0_422_249)">
<g clip-path="url(#clip1_422_249)">
<g clip-path="url(#clip2_422_249)">
<mask id="mask0_422_249" style="mask-type:luminance" maskUnits="userSpaceOnUse" x="0" y="16" width="61" height="48">
<path d="M0 16H60.2099V64H0V16Z" fill="white"/>
</mask>
<g mask="url(#mask0_422_249)">
<path d="M42.2721 43.5456L36.7445 24H24.3342V29.238C22.7171 26.0989 18.8113 24.2155 13.3648 24.2155C6.96619 24.2155 1.26026 27.2202 0.954463 34.2744H9.14153C9.40331 32.0967 10.9694 31.0102 13.103 31.0102C14.8868 31.0102 16.6707 31.7469 16.6707 33.7531C16.6707 36.6235 13.6683 36.8853 11.2729 36.8853V42.2437C13.4482 42.2437 16.9325 42.5472 16.9325 45.6399C16.9325 47.4237 15.5378 49.2099 12.8853 49.2099C10.0566 49.2099 8.53225 47.5094 8.53225 44.6831H0C0 52.2146 5.26808 56 12.408 56C17.968 56 22.1658 54.3088 24.3365 51.0377V55.3513H33.5684V44.7248C33.5684 42.1973 33.2186 37.9764 32.9151 35.2335H33.0031L38.7044 55.349H45.8443L51.5456 35.2335H51.6337C51.2422 38.8451 50.9804 42.2437 50.9804 45.7673V55.3467H60.2099V24H47.8042L42.2721 43.5456ZM24.3342 40.7101C23.623 39.9154 22.7056 39.2784 21.5936 38.8451C22.8585 38.2243 23.755 37.381 24.3342 36.3408V40.7101Z" fill="white"/>
</g>
</g>
</g>
</g>
<defs>
<clipPath id="clip0_422_249">
<rect width="61" height="48" fill="white" transform="translate(0 16)"/>
</clipPath>
<clipPath id="clip1_422_249">
<rect width="61" height="48" fill="white" transform="translate(0 16)"/>
</clipPath>
<clipPath id="clip2_422_249">
<rect width="61" height="48" fill="white" transform="translate(0 16)"/>
</clipPath>
</defs>
</svg>
