<svg width="32" height="32" viewBox="0 0 32 32" fill="none" xmlns="http://www.w3.org/2000/svg">
<path d="M27.7903 22.8596C27.3467 23.8844 26.8216 24.8277 26.2132 25.695C25.3839 26.8774 24.7049 27.6958 24.1817 28.1503C23.3705 28.8963 22.5014 29.2783 21.5707 29.3C20.9026 29.3 20.0968 29.1099 19.1589 28.7243C18.2179 28.3404 17.3532 28.1503 16.5625 28.1503C15.7332 28.1503 14.8438 28.3404 13.8925 28.7243C12.9397 29.1099 12.1722 29.3109 11.5854 29.3308C10.6929 29.3688 9.80335 28.9759 8.91542 28.1503C8.34869 27.656 7.63982 26.8086 6.79063 25.6081C5.87951 24.3262 5.13045 22.8397 4.54362 21.1449C3.91515 19.3143 3.6001 17.5417 3.6001 15.8256C3.6001 13.8598 4.02487 12.1643 4.87569 10.7435C5.54436 9.60221 6.43393 8.70196 7.5473 8.04108C8.66066 7.38019 9.86365 7.04341 11.1592 7.02186C11.868 7.02186 12.7976 7.24113 13.9528 7.67207C15.1047 8.10445 15.8444 8.32372 16.1687 8.32372C16.4111 8.32372 17.2328 8.06733 18.6257 7.55619C19.9429 7.08216 21.0547 6.88589 21.9654 6.9632C24.4333 7.16237 26.2874 8.13523 27.5205 9.88793C25.3133 11.2253 24.2215 13.0984 24.2432 15.5013C24.2631 17.373 24.9421 18.9305 26.2766 20.1671C26.8813 20.7411 27.5567 21.1847 28.3081 21.4998C28.1452 21.9724 27.9731 22.425 27.7903 22.8596ZM22.1302 0.586834C22.1302 2.05384 21.5942 3.42357 20.526 4.69138C19.2368 6.19856 17.6775 7.06948 15.9865 6.93206C15.965 6.75606 15.9525 6.57083 15.9525 6.37619C15.9525 4.96787 16.5656 3.46069 17.6543 2.22836C18.1978 1.60442 18.8892 1.08561 19.7275 0.671752C20.564 0.264067 21.3552 0.0386088 22.0994 0C22.1211 0.196115 22.1302 0.392243 22.1302 0.586815V0.586834Z" fill="white"/>
</svg>
