<svg width="375" height="375" viewBox="0 0 375 375" fill="none" xmlns="http://www.w3.org/2000/svg">
<circle opacity="0.1" cx="187.512" cy="187.512" r="116.91" fill="#B6B6B6"/>
<path d="M80.6277 125.798C78.2363 124.417 75.1686 125.233 73.8819 127.676C58.8497 156.223 55.088 189.453 63.4698 220.734C72.284 253.629 93.8045 281.675 123.297 298.703C152.79 315.73 187.839 320.344 220.734 311.53C252.015 303.149 278.912 283.276 296.118 255.984C297.591 253.648 296.764 250.584 294.372 249.203L187.5 187.5L80.6277 125.798Z" fill="#FF2DF7"/>
<path d="M72.9599 253.63C70.5684 255.01 69.7417 258.075 71.2086 260.414C89.5931 289.738 118.425 311.093 151.975 320.082C187.138 329.504 224.603 324.572 256.13 306.37C287.656 288.168 310.661 258.188 320.083 223.025C329.072 189.475 324.994 153.829 308.791 123.246C307.499 120.806 304.432 119.989 302.04 121.37L187.5 187.5L72.9599 253.63Z" fill="#86039A"/>
<path d="M187.512 329.029C187.512 331.791 189.752 334.038 192.512 333.944C229.556 332.681 264.819 317.412 291.115 291.115C318.593 263.638 334.029 226.371 334.029 187.512C334.029 148.653 318.593 111.386 291.115 83.9086C264.819 57.612 229.556 42.3436 192.512 41.0799C189.752 40.9857 187.512 43.2332 187.512 45.9946L187.512 187.512L187.512 329.029Z" fill="#5200FF"/>
<ellipse cx="187.512" cy="187.512" rx="83.5073" ry="83.5073" fill="black"/>
<path d="M148.504 203L163.665 173.776V173.63H145.745V167.771H170.94V173.703L156.243 203H148.504ZM188.836 203.781C181.268 203.781 175.823 199.289 175.604 192.917H182.415C182.83 195.896 185.467 197.946 188.885 197.946C192.742 197.946 195.403 195.261 195.403 191.428C195.403 187.521 192.742 184.787 188.934 184.787C186.272 184.787 183.978 186.008 182.757 188.034H176.165L177.898 167.771H200.311V173.63H183.685L182.879 183.273H183.025C184.466 180.905 187.273 179.416 190.862 179.416C197.601 179.416 202.435 184.372 202.435 191.232C202.435 198.703 196.917 203.781 188.836 203.781ZM221.209 176.218C221.209 181.833 218.108 185.349 213.177 185.349C208.27 185.349 205.145 181.833 205.145 176.218C205.145 170.627 208.27 167.087 213.177 167.087C218.108 167.087 221.209 170.627 221.209 176.218ZM213.177 181.027C214.764 181.027 215.74 179.221 215.74 176.193C215.74 173.166 214.764 171.335 213.177 171.335C211.59 171.335 210.613 173.166 210.613 176.193C210.613 179.221 211.59 181.027 213.177 181.027ZM214.544 203H208.636L222.308 184.274L234.344 167.771H240.228L226.946 185.983L214.544 203ZM243.719 194.357C243.719 199.973 240.618 203.513 235.687 203.513C230.779 203.513 227.654 199.973 227.654 194.357C227.654 188.767 230.779 185.227 235.687 185.227C240.618 185.227 243.719 188.767 243.719 194.357ZM235.687 199.167C237.273 199.167 238.25 197.36 238.25 194.333C238.25 191.306 237.273 189.475 235.687 189.475C234.1 189.475 233.123 191.306 233.123 194.333C233.123 197.36 234.1 199.167 235.687 199.167Z" fill="url(#paint0_linear_577_3008)"/>
<defs>
<linearGradient id="paint0_linear_577_3008" x1="249.26" y1="143.121" x2="108.092" y2="161.513" gradientUnits="userSpaceOnUse">
<stop offset="0.295" stop-color="#5200FF"/>
<stop offset="1" stop-color="#FF2DF7"/>
</linearGradient>
</defs>
</svg>
