<svg width="205" height="23" fill="none" xmlns="http://www.w3.org/2000/svg"><path d="M.408 23V.6H7.32v8.384h6.688V.6h6.912V23h-6.912v-8.608H7.32V23H.408zm21.873 0L29.45 3.416c.406-1.067 1.067-1.867 1.984-2.4.939-.555 1.995-.832 3.168-.832 1.174 0 2.219.267 3.136.8.939.533 1.61 1.333 2.016 2.4L46.921 23h-7.328l-1.216-3.904H30.73L29.45 23h-7.168zm9.888-9.184h4.768l-2.08-7.2c-.021-.064-.053-.107-.096-.128a.217.217 0 00-.16-.064c-.042 0-.085.021-.128.064-.042.021-.074.064-.096.128l-2.208 7.2zM59.506 23c-2.006 0-3.798-.267-5.377-.8-1.578-.533-2.911-1.301-4-2.304a10.13 10.13 0 01-2.495-3.552c-.577-1.365-.864-2.88-.864-4.544 0-1.664.287-3.179.863-4.544a10.13 10.13 0 012.496-3.552c1.11-1.003 2.443-1.77 4-2.304C55.71.867 57.5.6 59.507.6h3.392v5.408h-3.169c-.98 0-1.845.15-2.591.448-.747.299-1.366.715-1.856 1.248a5.138 5.138 0 00-1.12 1.824 7.14 7.14 0 00-.352 2.272c0 .81.117 1.568.351 2.272.256.704.63 1.323 1.12 1.856.491.512 1.11.917 1.857 1.216.746.299 1.61.448 2.592.448h3.168V23h-3.393zm5.496 0V.6h6.912v8.576h2.624c.448 0 .842-.107 1.184-.32.362-.213.65-.523.864-.928.213-.405.32-.885.32-1.44V.6h6.912v6.016c0 1.301-.32 2.507-.96 3.616a8.224 8.224 0 01-2.496 2.72l1.92 4.064c.106.213.256.384.448.512s.416.192.672.192h1.696V23h-3.616c-1.366 0-2.454-.235-3.264-.704a4.886 4.886 0 01-1.856-1.984l-2.752-5.76h-1.696V23h-6.912z" fill="#5200FF"/><path d="M86.948 23v-5.408h9.504c.363 0 .662-.075.896-.224.256-.15.448-.341.576-.576.15-.256.224-.523.224-.8 0-.299-.074-.565-.224-.8a1.437 1.437 0 00-.576-.608c-.234-.15-.533-.224-.896-.224h-2.88c-1.386 0-2.645-.267-3.776-.8a6.66 6.66 0 01-2.72-2.304c-.661-1.024-.992-2.25-.992-3.68 0-1.408.32-2.635.96-3.68a6.612 6.612 0 012.592-2.432C90.724.888 91.93.6 93.252.6h10.208v5.408h-9.28c-.298 0-.565.064-.8.192a1.47 1.47 0 00-.512.512c-.106.213-.16.448-.16.704 0 .256.054.49.16.704.128.213.299.395.512.544.235.128.502.192.8.192h3.104c1.515 0 2.838.288 3.968.864 1.131.555 2.006 1.333 2.624 2.336.619 1.003.928 2.187.928 3.552 0 1.557-.33 2.89-.992 4-.64 1.11-1.504 1.952-2.592 2.528-1.088.576-2.293.864-3.616.864H86.948zm32.404 0c-1.43 0-2.699-.299-3.808-.896a7.024 7.024 0 01-2.624-2.496c-.64-1.067-.96-2.272-.96-3.616V6.008h-5.792V.6h18.368v5.408h-5.664v10.336c0 .341.117.64.352.896.234.235.522.352.864.352h2.144V23h-2.88zm13.52 0c-1.28 0-2.453-.277-3.52-.832a6.584 6.584 0 01-2.496-2.272c-.619-.981-.928-2.112-.928-3.392a6.09 6.09 0 01.672-2.816 6.475 6.475 0 011.92-2.24 6.442 6.442 0 01-1.696-2.016c-.427-.81-.64-1.643-.64-2.496 0-1.259.299-2.357.896-3.296a6.395 6.395 0 012.464-2.24c1.045-.533 2.187-.8 3.424-.8h9.952v5.408h-8.416c-.341 0-.651.064-.928.192a1.464 1.464 0 00-.672.512c-.149.213-.224.49-.224.832 0 .32.075.597.224.832.171.213.395.384.672.512.277.107.587.16.928.16h7.296v5.376h-7.264c-.363 0-.683.064-.96.192-.277.128-.501.31-.672.544-.149.235-.224.523-.224.864 0 .32.075.597.224.832.171.235.395.416.672.544.277.107.597.16.96.16h8.384V23h-10.048zm12.599 0V.6h10.624c1.621 0 3.093.341 4.415 1.024a8.177 8.177 0 013.169 2.848c.789 1.195 1.184 2.581 1.184 4.16 0 1.301-.32 2.528-.96 3.68a8.338 8.338 0 01-2.496 2.816l1.248 1.952c.149.213.309.373.48.48.17.107.426.16.768.16h1.6V23h-3.584c-1.131 0-2.144-.245-3.04-.736-.875-.49-1.547-1.13-2.016-1.92l-2.144-3.616H152.383V23h-6.912zm6.912-11.552h3.008a2.47 2.47 0 001.216-.32c.384-.235.693-.555.928-.96.234-.427.352-.917.352-1.472 0-.555-.118-1.024-.352-1.408a2.426 2.426 0 00-.928-.928 2.297 2.297 0 00-1.216-.352h-3.008v5.44zM166.993 23v-5.408h3.488V6.008h-3.488V.6h13.92v5.408h-3.52v11.584h3.52V23h-13.92zm15.297 0l5.856-9.536c-1.002-.49-1.856-1.099-2.56-1.824a7.78 7.78 0 01-1.632-2.496c-.362-.96-.544-2.016-.544-3.168V.6h6.912v5.728c0 .363.064.693.192.992.128.299.299.555.512.768.235.192.491.33.768.416L196.53.6h7.648l-5.792 9.312c1.131.405 2.102.981 2.912 1.728a7.228 7.228 0 011.856 2.592c.427 1.003.64 2.123.64 3.36V23h-6.912v-5.664c0-.64-.192-1.205-.576-1.696-.384-.49-.853-.79-1.408-.896L189.938 23h-7.648z" fill="#fff"/></svg>