<svg width="99" height="72" viewBox="0 0 99 72" fill="none" xmlns="http://www.w3.org/2000/svg">
<g clip-path="url(#clip0_422_258)">
<g clip-path="url(#clip1_422_258)">
<g clip-path="url(#clip2_422_258)">
<mask id="mask0_422_258" style="mask-type:luminance" maskUnits="userSpaceOnUse" x="0" y="16" width="99" height="40">
<path d="M98.314 16.1416H0.764038V55.1616H98.314V16.1416Z" fill="white"/>
</mask>
<g mask="url(#mask0_422_258)">
<mask id="mask1_422_258" style="mask-type:alpha" maskUnits="userSpaceOnUse" x="0" y="16" width="98" height="40">
<path d="M0.764038 16.1416H97.9183V55.1616H0.764038V16.1416Z" fill="white"/>
</mask>
<g mask="url(#mask1_422_258)">
<path d="M97.5364 45.8461H92.475L93.3112 42.508H83.1505L82.3178 45.8461H77.4111V45.1607C77.4868 44.7837 77.5523 44.3895 77.6451 43.9679C78.5398 40.3693 80.9104 36.8118 85.0153 36.8118C86.6394 36.8118 88.2531 37.4287 88.033 39.6667H94.0715C94.3089 38.6214 94.7081 36.8427 93.5692 35.2112C92.2823 33.4358 89.688 32.723 86.3263 32.723C83.9177 32.723 80.4322 33.1034 77.4111 35.0708V16.9059H97.5364V45.8461ZM85.6588 50.737C84.5436 50.9498 83.4118 51.0645 82.2764 51.0797C79.376 51.0797 77.3561 49.7361 77.3149 46.6036H86.6876L85.6588 50.737ZM74.0632 34.2105V38.3575C72.8107 40.0809 71.9009 42.0273 71.3829 44.0914C71.231 44.6672 71.124 45.2539 71.063 45.8461H68.1072L70.6329 33.8986H62.1272L54.5024 45.8461H53.9382V16.9127H74.053L74.0632 34.2105ZM62.8292 45.8461H59.8047L64.3843 38.6694L62.8292 45.8461ZM50.6177 33.8711H45.5839L42.1431 45.8461H36.7892C39.5109 44.8454 41.1658 42.9295 41.6786 40.0917C42.0983 37.8845 41.8988 36.4314 40.9904 35.3449C39.6347 33.7271 36.9165 33.8643 34.501 33.8643H30.5098V16.9127H50.6108L50.6177 33.8711ZM47.4006 45.8461L49.52 38.3575L49.5924 45.8461H47.4006ZM32.76 42.9981C32.5639 42.9981 32.3678 43.0255 32.144 43.0255C31.8482 43.0255 31.6211 43.0255 31.4044 43.0255H30.1175L30.7127 40.8321L30.9914 39.7456L31.6796 37.1956H32.5501H33.548C35.2477 37.1956 36.3246 37.2916 36.717 37.8365C37.0163 38.2444 36.9784 38.9538 36.6241 40.0265C36.0185 41.8807 35.2477 42.8198 32.7737 43.0083M27.1653 34.9336L26.8521 35.9618L23.9723 45.5103L23.8587 45.853H14.3895L13.6498 44.2799L23.8587 33.8986H17.3004L9.31786 42.4668L11.9019 33.8986H7.06413V16.9127H27.1653V34.9336ZM76.6474 16.1416V35.6122C75.9911 36.1317 75.3863 36.7123 74.8409 37.3464V16.1416H53.1881V33.8711H51.3953V16.1416H29.739V33.8986H27.9462V16.1416H6.28996V36.3971L0.764038 54.7331H5.62588L8.06541 46.607H8.75357L12.7965 54.7331H18.6699L14.7578 46.607H23.6316L21.1714 54.7331H26.4806L28.9097 46.6275H30.0762V46.607H41.8953L39.5522 54.7092H44.9061L47.1769 46.607H49.5855L49.6509 54.7092H54.1446L59.3057 46.607H62.6811L60.9402 54.7092H66.2114L67.9318 46.607H70.9804C70.86 49.1192 71.5034 51.4053 73.1755 52.9338C75.2194 54.8052 78.3574 55.1616 80.68 55.1616C83.9772 55.1221 87.26 54.7209 90.4691 53.9655L92.2961 46.607H98.314V16.1416H76.6474Z" fill="white"/>
</g>
</g>
</g>
</g>
</g>
<defs>
<clipPath id="clip0_422_258">
<rect width="97.55" height="40" fill="white" transform="translate(0.764038 16)"/>
</clipPath>
<clipPath id="clip1_422_258">
<rect width="97.55" height="40" fill="white" transform="translate(0.764038 16)"/>
</clipPath>
<clipPath id="clip2_422_258">
<rect width="97.55" height="39.9955" fill="white" transform="translate(0.764038 16.0024)"/>
</clipPath>
</defs>
</svg>
