<svg width="170" height="76" viewBox="0 0 170 76" fill="none" xmlns="http://www.w3.org/2000/svg">
<g clip-path="url(#clip0_422_271)">
<g clip-path="url(#clip1_422_271)">
<g clip-path="url(#clip2_422_271)">
<path d="M107.802 31.5027C106.837 31.7593 105.967 31.9142 104.886 32.0296V32.3582C106.102 32.3582 106.257 32.4942 106.257 33.4993V36.8781C105.542 35.7192 104.982 35.3724 103.94 35.3724C101.874 35.3724 100.428 37.3221 100.428 40.1037C100.428 42.8854 101.894 44.8368 103.998 44.8368C105.099 44.8368 105.852 44.3357 106.392 43.254C106.469 43.9871 106.47 44.0642 106.663 44.7985C107.454 44.5471 107.782 44.4694 108.922 44.3345L109.21 44.2951V43.9671C107.917 43.9288 107.802 43.8317 107.802 42.654V31.5027ZM55.7113 31.6433C55.1025 31.7141 54.4899 31.7467 53.877 31.741C53.3359 31.741 53.0468 31.7222 52.2948 31.6639V32.145C53.6262 32.2227 53.8959 32.4159 53.8959 33.305V33.4216L53.4902 42.9048C53.4519 43.9482 53.2599 44.102 51.9085 44.1991V44.6631C52.9131 44.5854 53.2971 44.5665 53.8376 44.5665C54.3787 44.5665 54.7639 44.5854 55.7496 44.6631V44.1991C54.3976 44.102 54.1468 43.9282 54.1468 43.0785V42.9048L54.533 32.8804L57.6987 41.4374L57.9307 42.1128L58.2021 42.8654L58.4718 43.6197L58.685 44.2385H58.9752L59.1861 43.6008L59.437 42.8654L59.7067 42.1523L59.9387 41.5129L63.1249 32.8993L63.2986 42.9048V43.0014C63.2986 43.9094 63.0095 44.1214 61.6958 44.1991V44.6631C62.9123 44.5471 63.3752 44.5088 64.1094 44.5088C64.842 44.5088 65.306 44.5471 66.5225 44.6631V44.1991C65.1323 44.102 64.958 43.9482 64.9391 42.9048L64.7277 33.4216V33.2861C64.7277 32.4164 65.0169 32.2233 66.33 32.145V31.6639C65.5963 31.7222 65.2871 31.741 64.8049 31.741C64.2254 31.741 63.8209 31.721 62.9517 31.6433L59.3032 41.418L55.7113 31.6433ZM130.811 31.7204V32.205C132.2 32.2816 132.394 32.4353 132.394 33.4787V42.846C132.394 43.8894 132.24 44.0237 130.811 44.1402V44.6042H135.696C137.124 44.6042 137.896 44.4305 138.706 43.9288C139.673 43.3105 140.309 42.1311 140.309 40.914C140.309 39.8717 139.865 38.926 139.112 38.3466C138.706 38.0381 138.281 37.8632 137.586 37.7278C138.977 37.2066 139.712 36.2215 139.712 34.8701C139.712 33.8644 139.286 32.9753 138.552 32.4159C137.896 31.933 137.142 31.7199 135.888 31.7199L130.811 31.7204ZM134.016 32.3204H135.656C137.278 32.3204 137.992 33.1113 137.992 34.9084C137.992 35.7964 137.781 36.4341 137.356 36.9364C136.932 37.4192 136.41 37.5741 135.328 37.5741H134.016V32.3204ZM89.6136 35.0821L89.0913 36.0667C88.4736 35.4678 87.9525 35.2552 87.1228 35.2552C84.8445 35.2552 83.2994 37.2266 83.2994 40.1037C83.2994 42.9237 84.8251 44.8179 87.0645 44.8179C88.8027 44.8179 89.9022 43.6962 90.153 41.6294H89.361C89.1296 43.3294 88.4147 44.1802 87.217 44.1802C85.7314 44.1802 84.9788 42.8088 84.9788 40.1037C84.9788 37.3415 85.8296 35.7781 87.277 35.7781C88.4553 35.7781 89.1684 36.5884 89.5153 38.2683H89.9416V35.0821H89.6136ZM124.206 35.1404L123.878 35.9312C123.222 35.4878 122.663 35.3141 121.91 35.3141C120.21 35.3141 119.014 36.3569 119.014 37.8832C119.014 39.0032 119.459 39.5437 120.867 40.2015L121.755 40.6054L122.488 40.934C123.434 41.3591 123.802 41.8031 123.802 42.4597C123.802 43.4454 122.952 44.1991 121.813 44.1991C120.462 44.1991 119.65 43.3494 119.302 41.5917L118.879 41.6106V44.8368H119.226L119.688 43.9671C120.422 44.5465 121.117 44.7785 122.006 44.7785C123.821 44.7785 125.115 43.6208 125.115 41.9974C125.115 40.858 124.592 40.2392 123.126 39.602L122.315 39.2546C120.557 38.482 120.269 38.2318 120.269 37.4586C120.269 36.5507 121.06 35.8552 122.083 35.8552C123.299 35.8552 123.936 36.5895 124.11 38.1341H124.555V35.1398L124.206 35.1404ZM152.745 35.1404C151.975 35.4112 151.317 35.565 150.196 35.7198V36.0478C150.293 36.0478 150.391 36.0667 150.449 36.0667C151.414 36.0667 151.529 36.1838 151.548 36.9752V43.2334C151.548 44.0637 151.357 44.2185 150.179 44.2762V44.6631C151.183 44.5659 151.587 44.5477 152.262 44.5477C152.958 44.5477 153.344 44.5659 154.349 44.6631V44.2762C153.344 44.238 153.094 44.0442 153.094 43.2728V38.5963C153.094 37.0129 153.788 36.1838 155.102 36.1838C156.336 36.1838 156.838 36.8592 156.838 38.5398V43.2728C156.838 44.0442 156.587 44.238 155.544 44.2762V44.6631C156.548 44.5659 156.934 44.5477 157.649 44.5477C158.343 44.5477 158.731 44.5659 159.755 44.6631V44.2762C158.576 44.2191 158.382 44.0637 158.382 43.2334V38.5963C158.382 37.8632 158.286 37.3221 158.092 36.8592C157.707 35.9124 156.703 35.3141 155.544 35.3141C154.426 35.3141 153.633 35.7775 152.937 36.8209C152.898 36.0867 152.842 35.585 152.745 35.1404ZM78.4441 35.1781C77.6515 35.4095 76.9955 35.5267 75.895 35.6232V35.9707H76.1458C77.1492 35.9895 77.2469 36.0872 77.2658 36.9175V43.2334C77.2658 44.0637 77.0544 44.2185 75.8761 44.2762V44.6631C76.9384 44.5659 77.3435 44.5459 78.0389 44.5459C78.7143 44.5459 79.12 44.5659 80.1806 44.6631V44.2762C79.0035 44.2191 78.8103 44.0637 78.8103 43.2334V39.1963C78.8103 37.2832 79.4469 36.0684 80.4503 36.0684C80.7977 36.0684 81.0309 36.2598 81.0309 36.5312V36.7044L80.9914 36.8986C80.9726 36.9764 80.9537 37.0529 80.9537 37.0906C80.9537 37.4781 81.3012 37.7478 81.7457 37.7478C82.228 37.7478 82.5566 37.3798 82.5566 36.8198C82.5566 35.8935 81.8417 35.2558 80.8766 35.2558C79.8732 35.2558 79.0418 35.8935 78.6178 36.9946V36.7815C78.5783 36.2021 78.5401 35.8935 78.4441 35.1781ZM71.2122 35.2558C68.8951 35.2558 67.4482 37.1289 67.4482 40.1037C67.4482 43.078 68.8951 44.8179 71.3853 44.8179C73.2773 44.8179 74.5127 43.6385 74.7641 41.6489H73.9927C73.7607 43.2911 72.911 44.1802 71.5402 44.1802C69.7836 44.1802 69.0116 42.8288 68.9928 39.8146H74.7453C74.707 36.8404 73.4904 35.2558 71.2122 35.2558ZM95.2935 35.2558C92.9764 35.2558 91.5284 37.1289 91.5284 40.1037C91.5284 43.078 92.9764 44.8179 95.4666 44.8179C97.3586 44.8179 98.5951 43.6385 98.8454 41.6489H98.0729C97.8414 43.2911 96.9923 44.1802 95.6215 44.1802C93.8649 44.1802 93.0918 42.8288 93.0724 39.8146H98.8266C98.7871 36.8404 97.5717 35.2558 95.2935 35.2558ZM113.707 35.2558C111.39 35.2558 109.942 37.1289 109.942 40.1037C109.942 43.078 111.39 44.8179 113.881 44.8179C115.773 44.8179 117.008 43.6385 117.259 41.6489H116.486C116.254 43.2911 115.406 44.1802 114.035 44.1802C112.279 44.1802 111.506 42.8288 111.486 39.8146H117.241C117.201 36.8404 115.985 35.2558 113.707 35.2558ZM145.642 35.2558C143.325 35.2558 141.877 37.1289 141.877 40.1037C141.877 43.078 143.325 44.8179 145.815 44.8179C147.707 44.8179 148.943 43.6385 149.194 41.6489H148.421C148.19 43.2911 147.342 44.1802 145.972 44.1802C144.214 44.1802 143.442 42.8288 143.423 39.8146H149.175C149.136 36.8404 147.921 35.2558 145.642 35.2558ZM161.162 35.4872L160.715 37.9986H161.103C161.798 36.2604 162.106 35.9895 163.362 35.9895H165.735L160.504 44.6048H167.144L167.648 41.8237H167.243C166.662 43.5814 166.123 44.1025 164.808 44.1025H162.551L167.802 35.4872H161.162ZM71.1933 35.7575C72.4482 35.7575 73.0847 36.8392 73.2013 39.1192H69.0305C69.2236 36.8981 69.9573 35.7575 71.1933 35.7575ZM95.2729 35.7575C96.5277 35.7575 97.1649 36.8392 97.2809 39.1192H93.1101C93.3032 36.8981 94.0369 35.7575 95.2729 35.7575ZM113.688 35.7575C114.943 35.7575 115.58 36.8392 115.696 39.1192H111.526C111.718 36.8981 112.453 35.7575 113.688 35.7575ZM145.623 35.7575C146.878 35.7575 147.515 36.8392 147.631 39.1192H143.461C143.653 36.8981 144.388 35.7575 145.623 35.7575ZM104.114 35.9118C105.542 35.9118 106.276 37.3815 106.276 40.2203C106.276 42.9054 105.562 44.2951 104.172 44.2951C102.782 44.2951 102.049 42.8471 102.049 40.0849C102.049 37.2838 102.724 35.9118 104.114 35.9118ZM134.016 38.1735H135.85C136.873 38.1735 137.452 38.3461 137.896 38.7906C138.34 39.2352 138.59 40.0649 138.59 40.9923C138.59 42.9237 137.625 44.0065 135.907 44.0065H135.213C134.189 44.0065 134.016 43.8505 134.016 43.0008V38.1735ZM126.272 38.9392V39.938H130.587V38.9392H126.272ZM22.0216 24.3103C22.0216 24.0331 21.9376 24.024 21.9153 24.3L21.0319 37.4746L21.9107 37.9889L22.021 24.3109L22.0216 24.3103ZM17.8982 40.5523L21.6067 38.4969L20.7645 38.0283L17.7942 40.4603C17.6285 40.6026 17.7028 40.6614 17.8982 40.5523Z" fill="white"/>
<path d="M22.085 17.2544C10.3252 17.2487 0.787109 26.6942 0.787109 38.3352C0.787109 49.9761 10.3184 59.412 22.085 59.416C33.8517 59.4194 43.3915 49.9761 43.3915 38.3352C43.3915 26.6937 33.8603 17.2544 22.085 17.2544ZM22.085 58.6131C14.0817 58.6131 7.80185 54.4509 4.81104 48.7276L5.27332 48.5579C6.05045 49.8258 7.06586 50.9407 8.42984 52.4475C10.111 54.2955 15.4274 57.8646 22.081 57.8646C25.4393 57.8768 28.7449 57.03 31.6837 55.4046C34.6232 53.7788 37.0982 51.4287 38.8739 48.5773C39.1425 48.5019 39.2282 48.3853 39.139 48.1516C40.7384 45.3328 41.8247 41.7917 41.8247 38.3312C41.8247 36.1518 41.5047 34.3787 40.9979 32.7941C40.6842 31.8181 40.3023 30.8653 39.855 29.9428C39.8044 29.8614 39.7783 29.7672 39.7796 29.6713C39.8602 29.7325 39.9253 29.8119 39.9693 29.9028C40.2784 30.4673 40.971 31.8502 41.2961 32.7501C41.735 33.9513 42.5167 35.6141 42.5167 38.3312C42.5213 49.4224 33.4397 58.6194 22.085 58.6131ZM5.03047 48.2373L19.9462 37.5112L18.6702 36.7832L5.38132 47.8344C3.88877 45.1288 2.85222 41.6546 2.85222 38.3506C2.85222 27.8879 11.1778 19.4172 21.7193 19.3526L18.9999 36.2741L20.2708 37.0129L21.9793 19.3555C22.0113 19.1327 22.1639 19.1327 22.1639 19.3555L22.2645 37.9758L25.2913 36.1981L22.3907 19.3486C32.7517 19.6258 41.3356 27.9862 41.3356 38.3175C41.3356 41.6488 40.3299 45.1288 38.8059 47.8516L25.5307 36.7889L24.2524 37.5192L38.5208 47.8716C38.8636 48.1156 38.7585 48.2264 38.3939 48.023L22.3713 38.7786V42.2431L38.4305 48.3819C35.0648 53.8732 28.9941 57.3863 22.0439 57.3863C15.0783 57.3863 9.10526 53.8749 5.7396 48.375L21.8273 42.2323V38.7683L5.16704 48.3967C4.77161 48.6144 4.66704 48.4927 5.03047 48.2373ZM4.62019 48.443C3.91563 46.9819 3.17335 44.9231 2.86593 43.2945C2.85107 43.2088 2.8545 43.1208 2.87736 43.0374C2.92879 43.114 2.96764 43.1985 2.9945 43.2871C3.47735 44.7819 3.89906 46.1265 5.00075 48.1459L4.62019 48.443ZM42.4864 34.7587C42.4356 34.6851 42.3965 34.6042 42.3704 34.5187C40.8133 29.7142 39.487 27.8268 36.9311 25.02C33.5631 21.324 28.0661 18.4664 22.2153 18.4601C11.0327 18.4589 1.9608 27.5377 1.9608 38.7249C1.9608 42.0505 2.68593 44.9236 3.26878 46.3665C3.95163 48.0396 5.13389 50.2933 5.19275 50.395C5.23446 50.4778 5.25561 50.5698 5.25561 50.663C5.17881 50.6015 5.11409 50.5263 5.06475 50.4413C4.7259 49.9487 3.33678 47.4459 2.9065 46.3516C1.9608 43.9711 1.26653 41.374 1.26653 38.6483C1.26653 27.1182 10.5932 17.7681 22.1256 17.7681C32.4277 17.7681 40.7327 24.928 42.4864 34.5118C42.5036 34.5935 42.5036 34.6775 42.4864 34.7587Z" fill="white"/>
<path d="M34.4471 45.3504L23.4673 37.9888L22.5645 38.5048L34.3945 45.4344C34.6048 45.5555 34.6494 45.4801 34.4471 45.3504Z" fill="white"/>
</g>
</g>
</g>
<defs>
<clipPath id="clip0_422_271">
<rect width="169.14" height="44" fill="white" transform="translate(0.0780029 16)"/>
</clipPath>
<clipPath id="clip1_422_271">
<rect width="169.14" height="44" fill="white" transform="translate(0.0780029 16)"/>
</clipPath>
<clipPath id="clip2_422_271">
<rect width="169.14" height="43.9993" fill="white" transform="translate(0.0780029 16.0005)"/>
</clipPath>
</defs>
</svg>
