<svg width="74" height="64" viewBox="0 0 74 64" fill="none" xmlns="http://www.w3.org/2000/svg">
<g clip-path="url(#clip0_422_284)">
<g clip-path="url(#clip1_422_284)">
<g clip-path="url(#clip2_422_284)">
<path d="M31.4815 27.1678C34.9102 18.7605 28.4954 16.4751 24.3294 16.4751H10.5043C10.9067 16.7278 11.2027 17.1181 11.3368 17.5726C11.4708 18.0272 11.4337 18.5148 11.2325 18.944L3.17705 44.5696C2.98432 45.068 2.69342 45.5228 2.32144 45.9075C1.94946 46.2921 1.50392 46.5986 1.01111 46.8091H12.191C11.7477 46.6752 11.3753 46.3727 11.1545 45.9672C10.9336 45.5619 10.8822 45.0861 11.0113 44.6431L13.933 35.373C13.933 35.373 27.3986 37.2087 31.4447 27.1678H31.4815ZM20.6151 18.8339C22.0806 18.8339 26.1451 19.0358 23.5091 26.6721C20.7442 34.694 14.6887 33.0417 14.6887 33.0417L19.1589 18.8339H20.6058H20.6151Z" fill="white"/>
<path d="M40.431 46.8278H47.9611C45.1987 45.817 42.6848 44.2304 40.5876 42.1744C42.2502 40.6002 43.257 38.4607 43.408 36.1809H39.5092C39.7355 36.3253 39.922 36.5233 40.0522 36.7573C40.1826 36.9911 40.2526 37.2535 40.2559 37.521C40.2277 38.5451 39.8762 39.5342 39.2512 40.348C37.8312 38.4548 36.8835 36.2528 36.4862 33.9231C38.4121 33.1442 40.2254 32.1133 41.8781 30.8576C42.4568 30.4233 42.9362 29.8713 43.2842 29.2383C43.6322 28.6054 43.841 27.9059 43.8964 27.1863V27.0762C43.8988 26.6267 43.8101 26.1813 43.6359 25.7667C43.4618 25.3519 43.2056 24.9763 42.8826 24.6624C42.2412 24.0898 41.471 23.6792 40.637 23.4652C39.8028 23.2511 38.9292 23.2399 38.0899 23.4324C36.8212 23.6848 35.64 24.2603 34.6614 25.1029C32.394 27.2323 32.1083 30.7292 32.1083 32.317V33.1613L31.7488 33.3082C30.0897 33.9231 25.6565 35.0887 24.0805 38.7233C23.753 39.5568 23.5872 40.4443 23.5921 41.3391C23.5725 42.4424 23.87 43.5283 24.4492 44.4689C25.5644 46.2127 27.463 47.3142 30.4954 47.2224C33.795 47.1673 37.0485 44.9278 37.6199 44.4689C38.458 45.3257 39.3849 46.0918 40.3849 46.7543L40.431 46.8278ZM40.431 26.5531C40.0439 28.9945 36.8642 31.4634 36.0899 31.7939C35.853 29.9525 36.2319 28.0848 37.1682 26.4797C37.924 25.3048 38.9471 24.7909 39.7673 25.0845C40.431 25.314 40.4955 25.9106 40.4402 26.5531H40.431ZM36.0439 42.8902C34.8646 43.5666 33.5663 44.012 32.219 44.2027C30.6981 44.3495 28.1728 43.7622 28.1912 40.7333C28.1912 38.1452 31.0115 36.2545 32.5508 35.5935C33.2485 38.223 34.4365 40.6982 36.0531 42.8902H36.0439Z" fill="white"/>
<path d="M63.2978 18.8616C67.7679 17.7878 71.4545 21.2755 71.7864 21.5141L73.0582 17.4757C71.2979 16.9434 58.4589 12.6205 49.3897 22.9276C43.8136 29.2697 42.4496 42.2569 49.5188 45.7447C57.0857 49.471 65.4452 45.1757 66.1088 44.8727L69.519 33.9048C69.6958 33.2529 70.0379 32.6573 70.5123 32.1752C70.9869 31.693 71.578 31.3404 72.2288 31.1513H60.247C60.7883 31.2996 61.2488 31.6546 61.5285 32.1394C61.808 32.6241 61.8841 33.1992 61.7402 33.7395L58.2839 44.7075C57.823 44.7902 48.1455 47.1948 53.5649 30.362C54.7538 26.7458 58.0073 20.1282 63.3253 18.8525L63.2978 18.8616Z" fill="white"/>
</g>
</g>
</g>
<defs>
<clipPath id="clip0_422_284">
<rect width="72.64" height="32" fill="white" transform="translate(0.745972 16)"/>
</clipPath>
<clipPath id="clip1_422_284">
<rect width="72.64" height="32" fill="white" transform="translate(0.745972 16)"/>
</clipPath>
<clipPath id="clip2_422_284">
<rect width="72.64" height="31.9962" fill="white" transform="translate(0.745972 16.002)"/>
</clipPath>
</defs>
</svg>
