<svg width="89" height="76" viewBox="0 0 89 76" fill="none" xmlns="http://www.w3.org/2000/svg">
<g clip-path="url(#clip0_422_278)">
<g clip-path="url(#clip1_422_278)">
<g clip-path="url(#clip2_422_278)">
<path fill-rule="evenodd" clip-rule="evenodd" d="M1.05591 59.6683V16.3701H88.5892L45.291 59.6683H1.05591ZM51.6088 37.0853H53.5062C56.0391 37.0853 58.0553 36.2469 58.0553 33.5716C58.0553 30.9812 56.0391 30.1465 53.5062 30.1465H51.6088V37.0853ZM30.3254 41.5566C31.2088 41.8834 32.1436 42.0492 33.0855 42.046H33.0885C34.01 42.0467 34.9249 41.889 35.793 41.5799L33.1167 32.9379H33.0582L30.3254 41.5566ZM44.3873 24.5093H53.0031L53.0021 24.5181C61.2386 24.5181 65.1073 27.4518 65.1073 33.8476C65.1073 39.594 61.1236 43.018 54.3963 43.018H51.6107V51.2955H38.8446L37.5811 47.3371C36.2308 47.7817 34.705 48.0255 33.0875 48.0255C31.43 48.0255 29.8642 47.7641 28.4895 47.2991L27.1752 51.2955H19.3512L20.2131 48.979L19.8971 49.2549C17.9462 50.8226 15.505 51.6855 12.4826 51.7439H12.0331C8.61321 51.7325 5.25412 50.8389 2.28054 49.1497L4.94121 43.8623C7.82517 45.5666 9.63567 45.9468 12.077 45.8981C13.3435 45.8698 14.2589 45.6407 14.8546 45.0216C15.2164 44.6511 15.4025 44.1822 15.4221 43.682C15.4445 42.3083 13.4906 41.6638 11.0971 40.9258C9.15696 40.3174 6.96037 39.5052 5.23858 38.2436C3.20383 36.7451 2.23179 34.8713 2.28054 32.231C2.31271 30.3036 3.02541 28.572 4.34259 27.2032C6.23791 25.2464 9.29346 24.0511 12.9603 24.0511H12.9798C16.123 24.0579 19.9655 24.9471 22.7382 26.3637L19.7451 31.5778C16.7062 30.1085 15.1755 29.9681 13.44 29.8805C10.8651 29.743 9.55962 30.6633 9.54013 31.6559C9.5177 32.8697 11.9844 33.9655 14.3018 34.7114C17.8175 35.8257 22.2898 37.3204 22.9693 41.6375L29.4002 24.5093H36.8606L44.3873 44.9963V24.5093Z" fill="white"/>
<path d="M57.0864 55.2417V58.4718H57.574V57.0698H58.1219L59.0052 58.4718H59.5541L58.6094 57.0698C59.0812 57.0114 59.4624 56.7364 59.4624 56.1553C59.4624 55.5196 59.0725 55.2417 58.3052 55.2417H57.0864ZM57.574 55.6688H58.2437C58.5733 55.6688 58.9448 55.7214 58.9448 56.1251C58.9448 56.6292 58.5684 56.674 58.1521 56.674H57.574V55.6688ZM58.1834 54.0532C56.637 54.0532 55.3188 55.2446 55.3188 56.8563C55.3188 58.4796 56.637 59.6895 58.1834 59.6895C58.5542 59.6905 58.9216 59.6176 59.2641 59.4752C59.6065 59.3327 59.9173 59.1236 60.1782 58.86C60.439 58.5962 60.6448 58.2833 60.7836 57.9393C60.9224 57.5953 60.9913 57.2272 60.9863 56.8563C60.9863 55.2446 59.7082 54.0532 58.1834 54.0532ZM58.1834 54.5106C59.4449 54.5106 60.4374 55.5294 60.4374 56.8563C60.4374 58.2056 59.4449 59.2021 58.1834 59.2021C56.9003 59.2021 55.8677 58.2056 55.8677 56.8563C55.8677 55.5304 56.9003 54.5106 58.1834 54.5106Z" fill="white"/>
</g>
</g>
</g>
<defs>
<clipPath id="clip0_422_278">
<rect width="88" height="44" fill="white" transform="translate(0.981934 16)"/>
</clipPath>
<clipPath id="clip1_422_278">
<rect width="88" height="44" fill="white" transform="translate(0.981934 16)"/>
</clipPath>
<clipPath id="clip2_422_278">
<rect width="88" height="44" fill="white" transform="translate(0.981934 16)"/>
</clipPath>
</defs>
</svg>
