<svg width="163" height="64" viewBox="0 0 163 64" fill="none" xmlns="http://www.w3.org/2000/svg">
<g clip-path="url(#clip0_422_291)">
<g clip-path="url(#clip1_422_291)">
<g clip-path="url(#clip2_422_291)">
<path d="M97.0548 25.4665V22.1431H85.199V39.2424H97.0548V35.7742H89.999V31.9838H95.8672V28.6644H89.999V25.4665H97.0548Z" fill="white"/>
<path d="M117.961 35.8682H110.554V22.1431H105.695V39.2424H117.961V35.8682Z" fill="white"/>
<path d="M157.096 28.6596C153.817 27.9209 152.669 27.8353 152.669 26.5308C152.669 25.3204 154.294 24.9439 155.229 24.9439C156.74 24.9439 158.525 25.2964 160.344 26.2291L161.668 23.0826C159.803 22.0662 157.411 21.6431 155.11 21.6431C150.588 21.6431 147.554 23.4776 147.427 27.0541C147.298 30.3158 149.95 31.5359 152.387 32.0393C154.736 32.5248 157.12 32.9404 157.168 34.336C157.212 35.6232 156.054 36.1746 153.87 36.1746C151.847 36.1746 149.966 35.5245 148.044 34.7194L146.921 38.1395C149.13 39.079 151.373 39.5968 153.685 39.5968C156.897 39.5968 159.242 39.0955 160.967 37.4757C162.163 36.3633 162.554 35.0205 162.554 33.7387C162.557 31.036 160.872 29.5134 157.096 28.6596Z" fill="white"/>
<path d="M78.3061 25.5186V22.1431H63.3938V25.5186H68.4318V39.2424H73.262V25.5186H78.3061Z" fill="white"/>
<path d="M134.538 22.1431V33.0069C134.538 33.8581 134.538 34.0932 134.487 34.4245C134.331 35.4601 133.327 36.0609 131.728 36.0822C130.542 36.063 129.674 35.7125 129.269 35.0932C129.066 34.775 128.967 34.203 128.967 33.2895V22.1431H123.928V33.9273C123.928 35.5602 124.146 36.2975 124.884 37.2295C126.1 38.7499 128.471 39.5495 131.737 39.5495C131.774 39.5495 131.806 39.5495 131.844 39.5495C131.861 39.5495 131.891 39.5495 131.916 39.5495C136.288 39.5495 138.546 37.8447 139.198 36.2495C139.525 35.4759 139.548 35.1096 139.548 33.5487V22.1431H134.538Z" fill="white"/>
<path d="M65.6698 17.4607L37.4097 23.0871V25.0581L37.4995 25.0348C56.1686 20.4968 65.6692 17.7673 65.7459 17.7481C65.8515 17.7206 65.8886 17.6383 65.8742 17.5691C65.8584 17.4964 65.7823 17.436 65.6698 17.4607Z" fill="white"/>
<path d="M42.693 16.9233C41.3193 17.0014 38.7757 19.0362 37.3794 20.2446C31.8195 25.0549 27.6854 29.4763 24.6796 34.1069C18.4134 37.4632 10.423 40.915 2.4909 43.6088L2.29956 43.6732L0.772949 47.7839L1.64461 47.4472C6.69079 45.5243 15.1132 41.9128 22.7483 37.8981C22.3183 39.0447 22.1016 40.0988 22.1016 41.0596C22.1016 41.7763 22.2216 42.4429 22.461 43.0484C22.9411 44.2582 23.8874 45.1745 25.1994 45.695C27.1532 46.4748 29.819 46.4892 32.8606 45.5681C40.6308 43.213 49.8474 35.9819 51.8541 34.5437L51.9309 34.4896C52.0097 34.4327 52.0153 34.3469 51.9823 34.2886C51.9384 34.2222 51.8459 34.2043 51.7697 34.251L51.6709 34.3106C49.5175 35.6033 39.0534 41.8161 32.2515 43.6403C28.7869 44.5696 26.1465 44.0621 25.1507 42.6693C24.8051 42.1933 24.6384 41.5911 24.6384 40.8889C24.6384 39.5179 25.2838 37.7725 26.5265 35.8324C27.6704 35.1816 28.7389 34.5451 29.7017 33.9402C36.3376 30.2108 43.983 22.9597 44.3095 18.5335C44.3109 18.5034 44.3109 18.4684 44.3109 18.4355C44.3109 18.0535 44.1456 17.6605 43.8555 17.3704C43.5442 17.0529 43.134 16.8945 42.693 16.9233ZM41.953 19.0328C42.3885 18.7509 42.514 18.9272 42.3858 19.2454C42.1787 19.7536 41.2206 22.8109 34.1067 28.6513C32.2502 30.1718 30.9301 31.0255 28.2568 32.6084C32.6343 26.4738 39.0253 20.9339 41.953 19.0328Z" fill="white"/>
<path d="M37.3173 23.106L7.58466 29.497L6.43799 32.5893L37.4098 25.0578L38.3679 24.5167L38.3412 23.1094L37.3173 23.106Z" fill="white"/>
</g>
</g>
</g>
<defs>
<clipPath id="clip0_422_291">
<rect width="162.81" height="32" fill="white" transform="translate(0.149902 16)"/>
</clipPath>
<clipPath id="clip1_422_291">
<rect width="162.81" height="32" fill="white" transform="translate(0.149902 16)"/>
</clipPath>
<clipPath id="clip2_422_291">
<rect width="162.81" height="31.9973" fill="white" transform="translate(0.149902 16.0015)"/>
</clipPath>
</defs>
</svg>
