<svg width="43" height="42" viewBox="0 0 43 42" fill="none" xmlns="http://www.w3.org/2000/svg">
<path d="M19.4957 0.178802C13.0074 0.85173 7.32205 4.37851 3.86704 9.87543C-1.03161 17.6587 -0.11514 27.9472 6.07305 34.7251C9.50373 38.4789 13.786 40.7247 18.928 41.4543C19.885 41.5922 23.0723 41.5841 24.078 41.4543C28.7739 40.8057 32.9751 38.7221 36.1705 35.4629C37.2249 34.3927 37.4439 34.1413 38.1414 33.2171C40.2176 30.4524 41.572 27.0796 42.0992 23.3988C42.2371 22.4421 42.2371 19.2478 42.0992 18.2911C41.7505 15.8345 41.1097 13.7427 40.096 11.6915C39.0092 9.5187 37.9062 7.97016 36.1787 6.22704C32.9751 2.98402 28.9686 0.965237 24.3619 0.284203C23.3643 0.138264 20.4851 0.0734062 19.4957 0.178802ZM14.1428 9.13765C14.7187 9.34033 15.4081 10.0376 15.6027 10.6294C16.0731 12.0077 15.4405 13.459 14.151 13.9454C12.6343 14.5129 11.0934 14.0427 10.404 12.8023C10.185 12.405 10.1688 12.3077 10.1688 11.5618C10.1688 10.8808 10.2012 10.6943 10.3472 10.4186C10.7284 9.70517 11.288 9.25115 12.0666 9.03225C12.5451 8.89442 13.6076 8.95117 14.1428 9.13765ZM29.5525 16.102C30.3717 16.329 31.28 16.8479 31.864 17.4398C32.4885 18.0722 32.8615 18.6802 33.1778 19.564C33.6239 20.8368 33.6482 21.1449 33.6482 26.5283V31.4658H31.134H28.6198V27.0229C28.6198 23.5204 28.5955 22.4746 28.5063 22.053C28.2954 21.0638 27.898 20.4963 27.1762 20.1396C26.5355 19.8234 25.6271 19.8153 24.9702 20.1234C24.3862 20.399 23.8996 20.9017 23.5752 21.5584L23.3075 22.1016L23.2832 26.7797L23.2589 31.4658H20.7447H18.2386V23.8447V16.2236H20.7528H23.267V17.2938L23.2751 18.3721L23.4779 18.1289C23.5914 17.9911 23.8266 17.7154 23.9969 17.5046C24.589 16.8074 25.7569 16.1669 26.795 15.9804C27.3708 15.875 28.9767 15.948 29.5525 16.102ZM15.4648 23.861L15.4811 31.4658H12.9263H10.3715V23.9015C10.3715 19.7342 10.3959 16.3047 10.4283 16.2804C10.4608 16.248 11.5962 16.2317 12.9587 16.2399L15.4405 16.2642L15.4648 23.861Z" fill="white"/>
</svg>
